# Blender v3.5.0 OBJ File: 'Wepon.blend'
# www.blender.org
mtllib Wepon.mtl
o 立方体.001
v 0.398438 0.870595 1.368464
v 0.398438 0.870595 -1.235932
v -0.388123 0.869309 -1.235932
v -0.388123 0.869309 1.368464
v 0.005158 0.870595 -1.235932
v 0.005158 0.870595 1.368464
v 0.791718 0.870595 0.066266
v -0.781403 0.863323 0.066266
v 0.791719 0.874400 1.368464
v -0.781403 0.863323 -1.235932
v 0.791719 0.874400 -1.235931
v -0.781403 0.863323 1.368464
v 0.071289 1.027485 0.279700
v 0.071289 -0.678506 0.279700
v 0.126925 1.027485 0.268533
v 0.126925 -0.678506 0.268533
v 0.178200 1.027485 0.250399
v 0.178200 -0.678506 0.250399
v 0.223142 1.027485 0.225994
v 0.223142 -0.678506 0.225994
v 0.260026 1.027485 0.196256
v 0.260026 -0.678506 0.196256
v 0.287433 1.027485 0.162329
v 0.287433 -0.678506 0.162329
v 0.304310 1.027485 0.125516
v 0.304310 -0.678506 0.125516
v 0.310009 1.027485 0.087232
v 0.310009 -0.678506 0.087232
v 0.304310 1.027485 0.048947
v 0.304310 -0.678506 0.048947
v 0.287433 1.027485 0.012134
v 0.287433 -0.678506 0.012134
v 0.260026 1.027485 -0.021793
v 0.260026 -0.678506 -0.021793
v 0.223142 1.027485 -0.051530
v 0.223142 -0.678506 -0.051530
v 0.178200 1.027485 -0.075935
v 0.178200 -0.678506 -0.075935
v 0.126925 1.027485 -0.094069
v 0.126925 -0.678506 -0.094069
v 0.071289 1.027485 -0.105237
v 0.071289 -0.678506 -0.105237
v 0.013429 1.027485 -0.109007
v 0.013429 -0.678506 -0.109007
v -0.044431 1.027485 -0.105237
v -0.044431 -0.678506 -0.105237
v -0.100068 1.027485 -0.094069
v -0.100068 -0.678506 -0.094069
v -0.151342 1.027485 -0.075935
v -0.151342 -0.678506 -0.075935
v -0.196285 1.027485 -0.051530
v -0.196285 -0.678506 -0.051530
v -0.233169 1.027485 -0.021793
v -0.233169 -0.678506 -0.021793
v -0.260576 1.027485 0.012134
v -0.260576 -0.678506 0.012134
v -0.277453 1.027485 0.048947
v -0.277453 -0.678506 0.048947
v -0.283151 1.027485 0.087232
v -0.283151 -0.678506 0.087232
v -0.277453 1.027485 0.125516
v -0.277453 -0.678506 0.125516
v -0.260576 1.027485 0.162329
v -0.260576 -0.678506 0.162329
v -0.233169 1.027485 0.196256
v -0.233169 -0.678506 0.196256
v -0.196285 1.027485 0.225994
v -0.196285 -0.678506 0.225994
v -0.151342 1.027485 0.250399
v -0.151342 -0.678506 0.250399
v -0.100068 1.027485 0.268533
v -0.100068 -0.678506 0.268533
v -0.044431 1.027485 0.279700
v -0.044431 -0.678506 0.279700
v 0.013429 1.027485 0.283471
v 0.013429 -0.678506 0.283471
v -0.745183 0.840764 1.304813
v -0.745183 0.863470 1.304813
v -0.745183 0.840764 -1.182334
v -0.745183 0.863470 -1.182334
v 0.745183 0.840764 1.304813
v 0.745183 0.863470 1.304813
v 0.745183 0.840764 -1.182334
v 0.745183 0.863470 -1.182334
v 0.223607 1.383843 -0.125765
v 0.223607 1.383843 0.258297
v -0.213292 1.383456 0.258297
v -0.213292 1.383456 -0.125765
v 0.005157 1.383843 -0.125765
v 0.005157 1.383843 0.258297
v 0.442056 1.384989 -0.125765
v -0.431741 1.381653 0.066266
v 0.442056 1.383843 0.066266
v 0.442056 1.384989 0.258297
v -0.431741 1.381653 -0.125765
v -0.431741 1.381653 0.258297
v 0.223607 1.917162 0.244139
v 0.223607 2.981873 0.244139
v 0.223607 3.514228 0.066266
v 0.223607 2.449518 0.244139
v 0.398438 0.860977 1.368464
v 0.223607 3.514228 0.122138
v 0.223607 1.917162 -0.111606
v 0.223607 2.981873 -0.111606
v 0.223607 2.449518 -0.111606
v 0.398438 0.860977 -1.235932
v 0.223607 3.514228 0.010395
v -0.213292 1.917162 -0.111606
v -0.213292 2.981873 -0.111606
v -0.213292 2.449518 -0.111606
v -0.388123 0.859595 -1.235932
v -0.213292 3.514228 0.010395
v -0.213292 1.917162 0.244139
v -0.213292 2.981873 0.244139
v -0.213292 3.514228 0.066266
v -0.213292 2.449518 0.244139
v -0.388123 0.859595 1.368464
v -0.213292 3.514228 0.122138
v 0.005157 1.917162 0.244139
v 0.005157 1.917162 -0.111606
v 0.005157 2.981873 -0.111606
v 0.005157 2.981873 0.244139
v 0.005157 3.514228 0.066266
v 0.005157 2.449518 -0.111606
v 0.005157 2.449518 0.244139
v 0.005157 0.860977 -1.235932
v 0.005157 0.860977 1.368464
v 0.005157 3.514228 0.122138
v 0.005157 3.514228 0.010395
v -0.431741 1.917162 0.066266
v 0.442056 1.917162 0.066266
v 0.442056 1.917162 -0.111606
v 0.442056 1.917162 0.244139
v -0.431741 1.917162 -0.111606
v -0.431741 1.917162 0.244139
v 0.442056 2.981873 0.066266
v -0.431741 2.981873 0.066266
v 0.442056 2.981873 0.244139
v -0.431741 2.981873 -0.111606
v -0.431741 2.981873 0.244139
v 0.442056 2.981873 -0.111606
v 0.442056 2.449518 0.066266
v -0.431741 2.449518 0.066266
v 0.791718 0.860977 0.066266
v -0.781403 0.853165 0.066266
v 0.442056 3.514228 0.066266
v -0.431741 3.514228 0.066266
v 0.442056 2.449518 0.244139
v -0.431741 2.449518 -0.111606
v -0.431741 2.449518 0.244139
v 0.442056 2.449518 -0.111606
v 0.791719 0.865065 1.368464
v -0.781403 0.853165 -1.235932
v 0.791719 0.865065 -1.235931
v -0.781403 0.853165 1.368464
v 0.442056 3.514228 0.010395
v 0.442056 3.514228 0.122138
v -0.431741 3.514228 0.010395
v -0.431741 3.514228 0.122138
vt 0.662748 0.000000
vt 0.331374 0.841163
vt 0.331374 0.000000
vt 0.331374 0.000000
vt 0.000000 0.841163
vt 0.000000 0.000000
vt 0.791966 0.375201
vt 0.773754 0.578632
vt 0.773754 0.375201
vt 0.838969 1.000000
vt 0.857181 0.158837
vt 0.857181 1.000000
vt 0.810179 0.375201
vt 0.791966 0.578632
vt 0.791966 0.375201
vt 0.857181 1.000000
vt 0.875394 0.158837
vt 0.875393 1.000000
vt 0.662748 0.841163
vt 0.331374 0.841163
vt 0.791966 0.578632
vt 0.838969 0.158837
vt 0.810179 0.578632
vt 0.857181 0.158837
vt 0.672776 0.238550
vt 0.666134 0.228706
vt 0.682419 0.178447
vt 0.940239 0.376248
vt 0.922882 0.267543
vt 0.940239 0.267543
vt 0.957261 0.376248
vt 0.957261 0.267543
vt 0.682419 0.355591
vt 0.672776 0.346732
vt 0.694692 0.279095
vt 0.973296 0.376248
vt 0.973296 0.267543
vt 0.987727 0.376248
vt 0.987727 0.267543
vt 1.000000 0.376248
vt 1.000000 0.267543
vt 0.889825 0.484953
vt 0.875394 0.376248
vt 0.889825 0.376248
vt 0.905860 0.484953
vt 0.905860 0.376248
vt 0.922882 0.484953
vt 0.922882 0.376248
vt 0.940239 0.484953
vt 0.940239 0.376248
vt 0.957261 0.484953
vt 0.957261 0.376248
vt 0.973296 0.484953
vt 0.973296 0.376248
vt 0.987727 0.484953
vt 0.987727 0.376248
vt 0.889825 0.267543
vt 0.875394 0.158837
vt 0.889825 0.158837
vt 0.905860 0.267543
vt 0.905860 0.158837
vt 0.922882 0.267543
vt 0.922882 0.158837
vt 0.940239 0.267543
vt 0.940239 0.158837
vt 0.957261 0.267543
vt 0.957261 0.158837
vt 0.973296 0.267543
vt 0.973296 0.158837
vt 0.987727 0.267543
vt 0.987727 0.158837
vt 1.000000 0.267543
vt 1.000000 0.158837
vt 0.804116 0.108705
vt 0.791843 0.000000
vt 0.804116 0.000000
vt 0.818547 0.108705
vt 0.818547 0.000000
vt 0.834582 0.108705
vt 0.834582 0.000000
vt 0.851605 0.108705
vt 0.851605 0.000000
vt 0.868961 0.108705
vt 0.868961 0.000000
vt 0.885984 0.108705
vt 0.885984 0.000000
vt 0.902019 0.108705
vt 0.902019 0.000000
vt 0.916450 0.108705
vt 0.916450 0.000000
vt 0.928723 0.108705
vt 0.928723 0.000000
vt 0.889825 0.376248
vt 0.875394 0.267543
vt 0.889825 0.267543
vt 0.905860 0.376248
vt 0.905860 0.267543
vt 0.922882 0.376248
vt 0.662748 0.218256
vt 0.662748 0.207601
vt 0.666134 0.197151
vt 0.672776 0.187307
vt 0.694692 0.170913
vt 0.682419 0.247409
vt 0.709123 0.164994
vt 0.694692 0.254943
vt 0.725158 0.160916
vt 0.742180 0.158837
vt 0.709123 0.260863
vt 0.759537 0.158837
vt 0.742180 0.267019
vt 0.776559 0.160916
vt 0.759537 0.267019
vt 0.792594 0.164994
vt 0.807025 0.170913
vt 0.776559 0.264940
vt 0.819298 0.178447
vt 0.807025 0.254943
vt 0.828941 0.187307
vt 0.819298 0.247409
vt 0.835583 0.197151
vt 0.838969 0.207601
vt 0.828941 0.238550
vt 0.838969 0.218256
vt 0.835583 0.228706
vt 0.792594 0.260863
vt 0.725158 0.264940
vt 0.666134 0.336888
vt 0.662748 0.326437
vt 0.666134 0.305332
vt 0.662748 0.315783
vt 0.672776 0.295488
vt 0.682419 0.286629
vt 0.709123 0.273175
vt 0.725158 0.269098
vt 0.694692 0.363125
vt 0.742180 0.267019
vt 0.725158 0.373122
vt 0.759537 0.267019
vt 0.742180 0.375201
vt 0.776559 0.269098
vt 0.759537 0.375201
vt 0.792594 0.273175
vt 0.776559 0.373122
vt 0.807025 0.279095
vt 0.819298 0.286629
vt 0.792594 0.369045
vt 0.828941 0.295488
vt 0.807025 0.363125
vt 0.835583 0.305332
vt 0.819298 0.355591
vt 0.838969 0.315783
vt 0.835583 0.336888
vt 0.838969 0.326438
vt 0.828941 0.346732
vt 0.709123 0.369045
vt 0.875394 0.484953
vt 0.875394 0.267543
vt 0.791843 0.108705
vt 0.875394 0.376248
vt 0.000000 0.000000
vt 0.000000 0.000000
vt 0.000000 0.000000
vt 0.000000 0.000000
vt 0.000000 0.000000
vt 0.000000 0.000000
vt 0.000000 0.000000
vt 0.000000 0.000000
vt 0.000000 0.000000
vt 0.000000 0.000000
vt 0.000000 0.000000
vt 0.000000 0.000000
vt 0.000000 0.000000
vt 0.000000 0.000000
vt 0.000000 0.000000
vt 0.000000 0.000000
vt 0.000000 0.000000
vt 0.000000 0.000000
vt 0.000000 0.000000
vt 0.000000 0.000000
vt 0.000000 0.000000
vt 0.000000 0.000000
vt 0.000000 0.000000
vt 0.000000 0.000000
vt 0.000000 0.000000
vt 0.000000 0.000000
vt 0.000000 0.000000
vt 0.000000 0.000000
vt 0.000000 0.000000
vt 0.000000 0.000000
vt 0.000000 0.000000
vt 0.000000 0.000000
vt 0.000000 0.000000
vt 0.000000 0.000000
vt 0.000000 0.000000
vt 0.000000 0.000000
vt 0.000000 0.000000
vt 0.000000 0.000000
vt 0.000000 0.000000
vt 0.000000 0.000000
vt 0.000000 0.000000
vt 0.000000 0.000000
vt 0.000000 0.000000
vt 0.000000 0.000000
vt 0.000000 0.000000
vt 0.000000 0.000000
vt 0.000000 0.000000
vt 0.000000 0.000000
vt 0.000000 0.000000
vt 0.000000 0.000000
vt 0.000000 0.000000
vt 0.000000 0.000000
vt 0.000000 0.000000
vt 0.000000 0.000000
vt 0.000000 0.000000
vt 0.000000 0.000000
vt 0.000000 0.000000
vt 0.000000 0.000000
vt 0.000000 0.000000
vt 0.000000 0.000000
vt 0.000000 0.000000
vt 0.000000 0.000000
vt 0.000000 0.000000
vt 0.000000 0.000000
vt 0.000000 0.000000
vt 0.000000 0.000000
vt 0.000000 0.000000
vt 0.000000 0.000000
vt 0.000000 0.000000
vt 0.000000 0.000000
vt 0.000000 0.000000
vt 0.000000 0.000000
vt 0.000000 0.000000
vt 0.000000 0.000000
vt 0.000000 0.000000
vn 0.0000 1.0000 0.0000
vn 0.0000 -1.0000 0.0000
vn 0.0000 0.0000 1.0000
vn 1.0000 0.0000 0.0000
vn 0.0000 0.0000 -1.0000
vn -1.0000 0.0000 0.0000
vn 0.0650 0.0000 0.9979
vn 0.1968 0.0000 0.9804
vn 0.3334 0.0000 0.9428
vn 0.4772 0.0000 0.8788
vn 0.6277 0.0000 0.7785
vn 0.7779 0.0000 0.6284
vn 0.9090 0.0000 0.4167
vn 0.9891 0.0000 0.1472
vn 0.9891 0.0000 -0.1472
vn 0.9090 0.0000 -0.4167
vn 0.7779 0.0000 -0.6284
vn 0.6277 0.0000 -0.7785
vn 0.4772 0.0000 -0.8788
vn 0.3334 0.0000 -0.9428
vn 0.1968 0.0000 -0.9804
vn 0.0650 0.0000 -0.9979
vn -0.0650 0.0000 -0.9979
vn -0.1968 0.0000 -0.9804
vn -0.3334 0.0000 -0.9428
vn -0.4772 0.0000 -0.8788
vn -0.6277 0.0000 -0.7785
vn -0.7779 0.0000 -0.6284
vn -0.9090 0.0000 -0.4167
vn -0.9891 0.0000 -0.1472
vn -0.9891 0.0000 0.1472
vn -0.9090 0.0000 0.4167
vn -0.7779 0.0000 0.6284
vn -0.6277 0.0000 0.7785
vn -0.4772 0.0000 0.8788
vn -0.3334 0.0000 0.9428
vn -0.1968 0.0000 0.9804
vn -0.0650 0.0000 0.9979
vn -0.8340 0.5518 0.0000
vn 0.8315 0.5555 0.0017
vn -0.0094 0.9044 -0.4265
vn 0.8315 0.5555 -0.0017
vn -0.0148 0.9046 0.4260
vn 0.0000 0.9047 0.4261
vn -0.0032 0.9046 -0.4263
vn -0.0148 0.9046 -0.4260
vn -0.0032 0.9046 0.4263
vn -0.0094 0.9044 0.4265
vn 0.0000 0.9047 -0.4261
vn 0.0000 0.2234 -0.9747
vn 0.0000 0.0265 -0.9996
vn -0.0001 0.0265 0.9996
vn 0.0000 0.2234 0.9747
vn -0.0000 0.0265 0.9996
vn -0.0002 0.0264 -0.9997
vn -0.0002 0.0264 0.9997
vn -0.0001 0.0265 -0.9996
vn 0.8312 0.5559 0.0033
vn -0.0047 0.9044 -0.4267
vn 0.8312 0.5559 -0.0033
vn -0.0075 0.9048 0.4258
vn -0.0016 0.9047 -0.4261
vn -0.0075 0.9048 -0.4258
vn -0.0016 0.9047 0.4261
vn -0.0047 0.9044 0.4267
vn 0.0000 0.0266 0.9996
vn 0.0000 0.0266 -0.9996
usemtl (null)
s off
f 81/1/1 79/2/1 77/3/1
f 78/4/2 84/5/2 82/6/2
f 79/7/3 84/8/3 80/9/3
f 77/10/4 80/11/4 78/12/4
f 81/13/5 78/14/5 82/15/5
f 83/16/6 82/17/6 84/18/6
f 81/1/1 83/19/1 79/2/1
f 78/4/2 80/20/2 84/5/2
f 79/7/3 83/21/3 84/8/3
f 77/10/4 79/22/4 80/11/4
f 81/13/5 77/23/5 78/14/5
f 83/16/6 81/24/6 82/17/6
f 18/25/2 16/26/2 70/27/2
f 13/28/7 76/29/7 14/30/7
f 15/31/8 14/30/8 16/32/8
f 67/33/1 69/34/1 19/35/1
f 17/36/9 16/32/9 18/37/9
f 19/38/10 18/37/10 20/39/10
f 21/40/11 20/39/11 22/41/11
f 23/42/12 22/43/12 24/44/12
f 25/45/13 24/44/13 26/46/13
f 27/47/14 26/46/14 28/48/14
f 29/49/15 28/48/15 30/50/15
f 31/51/16 30/50/16 32/52/16
f 33/53/17 32/52/17 34/54/17
f 35/55/18 34/54/18 36/56/18
f 37/57/19 36/58/19 38/59/19
f 39/60/20 38/59/20 40/61/20
f 41/62/21 40/61/21 42/63/21
f 43/64/22 42/63/22 44/65/22
f 45/66/23 44/65/23 46/67/23
f 47/68/24 46/67/24 48/69/24
f 49/70/25 48/69/25 50/71/25
f 51/72/26 50/71/26 52/73/26
f 53/74/27 52/75/27 54/76/27
f 55/77/28 54/76/28 56/78/28
f 57/79/29 56/78/29 58/80/29
f 59/81/30 58/80/30 60/82/30
f 61/83/31 60/82/31 62/84/31
f 63/85/32 62/84/32 64/86/32
f 65/87/33 64/86/33 66/88/33
f 67/89/34 66/88/34 68/90/34
f 69/91/35 68/90/35 70/92/35
f 71/93/36 70/94/36 72/95/36
f 73/96/37 72/95/37 74/97/37
f 75/98/38 74/97/38 76/29/38
f 14/99/2 76/100/2 74/101/2
f 74/101/2 72/102/2 14/99/2
f 72/102/2 70/27/2 16/26/2
f 14/99/2 72/102/2 16/26/2
f 70/27/2 68/103/2 20/104/2
f 68/103/2 66/105/2 22/106/2
f 66/105/2 64/107/2 22/106/2
f 64/107/2 62/108/2 24/109/2
f 22/106/2 64/107/2 24/109/2
f 62/108/2 60/110/2 28/111/2
f 60/110/2 58/112/2 30/113/2
f 58/112/2 56/114/2 30/113/2
f 56/114/2 54/115/2 32/116/2
f 30/113/2 56/114/2 32/116/2
f 54/115/2 52/117/2 36/118/2
f 52/117/2 50/119/2 38/120/2
f 50/119/2 48/121/2 38/120/2
f 48/121/2 46/122/2 40/123/2
f 38/120/2 48/121/2 40/123/2
f 46/122/2 44/124/2 42/125/2
f 42/125/2 40/123/2 46/122/2
f 38/120/2 36/118/2 52/117/2
f 36/118/2 34/126/2 54/115/2
f 34/126/2 32/116/2 54/115/2
f 30/113/2 28/111/2 60/110/2
f 28/111/2 26/127/2 62/108/2
f 26/127/2 24/109/2 62/108/2
f 22/106/2 20/104/2 68/103/2
f 20/104/2 18/25/2 70/27/2
f 13/28/7 75/98/7 76/29/7
f 15/31/8 13/28/8 14/30/8
f 71/128/1 73/129/1 13/130/1
f 73/129/1 75/131/1 13/130/1
f 13/130/1 15/132/1 71/128/1
f 15/132/1 17/133/1 71/128/1
f 17/133/1 19/35/1 69/34/1
f 71/128/1 17/133/1 69/34/1
f 19/35/1 21/134/1 67/33/1
f 21/134/1 23/135/1 65/136/1
f 67/33/1 21/134/1 65/136/1
f 23/135/1 25/137/1 61/138/1
f 25/137/1 27/139/1 59/140/1
f 27/139/1 29/141/1 57/142/1
f 29/141/1 31/143/1 55/144/1
f 31/143/1 33/145/1 55/144/1
f 33/145/1 35/146/1 53/147/1
f 55/144/1 33/145/1 53/147/1
f 35/146/1 37/148/1 51/149/1
f 37/148/1 39/150/1 49/151/1
f 51/149/1 37/148/1 49/151/1
f 39/150/1 41/152/1 45/153/1
f 41/152/1 43/154/1 45/153/1
f 45/153/1 47/155/1 39/150/1
f 47/155/1 49/151/1 39/150/1
f 51/149/1 53/147/1 35/146/1
f 55/144/1 57/142/1 29/141/1
f 57/142/1 59/140/1 27/139/1
f 59/140/1 61/138/1 25/137/1
f 61/138/1 63/156/1 23/135/1
f 63/156/1 65/136/1 23/135/1
f 17/36/9 15/31/9 16/32/9
f 19/38/10 17/36/10 18/37/10
f 21/40/11 19/38/11 20/39/11
f 23/42/12 21/157/12 22/43/12
f 25/45/13 23/42/13 24/44/13
f 27/47/14 25/45/14 26/46/14
f 29/49/15 27/47/15 28/48/15
f 31/51/16 29/49/16 30/50/16
f 33/53/17 31/51/17 32/52/17
f 35/55/18 33/53/18 34/54/18
f 37/57/19 35/158/19 36/58/19
f 39/60/20 37/57/20 38/59/20
f 41/62/21 39/60/21 40/61/21
f 43/64/22 41/62/22 42/63/22
f 45/66/23 43/64/23 44/65/23
f 47/68/24 45/66/24 46/67/24
f 49/70/25 47/68/25 48/69/25
f 51/72/26 49/70/26 50/71/26
f 53/74/27 51/159/27 52/75/27
f 55/77/28 53/74/28 54/76/28
f 57/79/29 55/77/29 56/78/29
f 59/81/30 57/79/30 58/80/30
f 61/83/31 59/81/31 60/82/31
f 63/85/32 61/83/32 62/84/32
f 65/87/33 63/85/33 64/86/33
f 67/89/34 65/87/34 66/88/34
f 69/91/35 67/89/35 68/90/35
f 71/93/36 69/160/36 70/94/36
f 73/96/37 71/93/37 72/95/37
f 75/98/38 73/96/38 74/97/38
usemtl Material
f 96/161/39 145/162/39 155/163/39
f 91/164/40 144/165/40 154/166/40
f 106/167/41 91/164/41 154/166/41
f 144/165/42 94/168/42 152/169/42
f 145/162/39 95/170/39 153/171/39
f 117/172/43 96/161/43 155/163/43
f 86/173/44 127/174/44 101/175/44
f 88/176/45 126/177/45 111/178/45
f 95/170/46 111/178/46 153/171/46
f 127/174/47 87/179/47 117/172/47
f 94/168/48 101/175/48 152/169/48
f 126/177/49 85/180/49 106/167/49
f 99/181/1 129/182/1 123/183/1
f 129/182/50 104/184/50 121/185/50
f 124/186/5 103/187/5 120/188/5
f 102/189/1 123/183/1 128/190/1
f 121/185/5 105/191/5 124/186/5
f 120/188/51 85/180/51 89/192/51
f 94/168/52 97/193/52 86/173/52
f 138/194/3 100/195/3 148/196/3
f 148/196/3 97/193/3 133/197/3
f 157/198/53 98/199/53 138/194/53
f 128/190/53 114/200/53 122/201/53
f 125/202/3 113/203/3 119/204/3
f 122/201/3 116/205/3 125/202/3
f 90/206/54 113/203/54 87/179/54
f 134/207/55 88/176/55 95/170/55
f 139/208/5 110/209/5 149/210/5
f 118/211/1 147/212/1 159/213/1
f 149/210/5 108/214/5 134/207/5
f 158/215/50 109/216/50 139/208/50
f 115/217/1 158/215/1 147/212/1
f 123/183/1 112/218/1 115/217/1
f 112/218/50 121/185/50 109/216/50
f 102/189/53 122/201/53 98/199/53
f 100/195/3 119/204/3 97/193/3
f 110/209/5 120/188/5 108/214/5
f 128/190/1 115/217/1 118/211/1
f 98/199/3 125/202/3 100/195/3
f 109/216/5 124/186/5 110/209/5
f 108/214/51 89/192/51 88/176/51
f 97/193/54 90/206/54 86/173/54
f 87/179/56 135/219/56 96/161/56
f 92/220/6 134/207/6 95/170/6
f 93/221/4 133/197/4 94/168/4
f 103/187/57 91/164/57 85/180/57
f 132/222/4 93/221/4 91/164/4
f 135/219/6 92/220/6 96/161/6
f 104/184/5 151/223/5 105/191/5
f 136/224/4 148/196/4 142/225/4
f 137/226/6 149/210/6 143/227/6
f 114/200/3 150/228/3 116/205/3
f 140/229/6 143/227/6 150/228/6
f 141/230/4 142/225/4 151/223/4
f 157/198/1 99/181/1 102/189/1
f 156/231/4 136/224/4 141/230/4
f 159/213/6 137/226/6 140/229/6
f 150/228/6 130/232/6 135/219/6
f 151/223/4 131/233/4 132/222/4
f 105/191/5 132/222/5 103/187/5
f 142/225/4 133/197/4 131/233/4
f 143/227/6 134/207/6 130/232/6
f 116/205/3 135/219/3 113/203/3
f 118/211/53 140/229/53 114/200/53
f 137/226/6 158/215/6 139/208/6
f 136/224/4 157/198/4 138/194/4
f 107/234/50 141/230/50 104/184/50
f 146/235/1 107/234/1 99/181/1
f 96/161/39 92/220/39 145/162/39
f 91/164/58 93/221/58 144/165/58
f 106/167/59 85/180/59 91/164/59
f 144/165/60 93/221/60 94/168/60
f 145/162/39 92/220/39 95/170/39
f 117/172/61 87/179/61 96/161/61
f 86/173/44 90/206/44 127/174/44
f 88/176/62 89/192/62 126/177/62
f 95/170/63 88/176/63 111/178/63
f 127/174/64 90/206/64 87/179/64
f 94/168/65 86/173/65 101/175/65
f 126/177/49 89/192/49 85/180/49
f 99/181/1 107/234/1 129/182/1
f 129/182/50 107/234/50 104/184/50
f 124/186/5 105/191/5 103/187/5
f 102/189/1 99/181/1 123/183/1
f 121/185/5 104/184/5 105/191/5
f 120/188/51 103/187/51 85/180/51
f 94/168/66 133/197/66 97/193/66
f 138/194/3 98/199/3 100/195/3
f 148/196/3 100/195/3 97/193/3
f 157/198/53 102/189/53 98/199/53
f 128/190/53 118/211/53 114/200/53
f 125/202/3 116/205/3 113/203/3
f 122/201/3 114/200/3 116/205/3
f 90/206/54 119/204/54 113/203/54
f 134/207/51 108/214/51 88/176/51
f 139/208/5 109/216/5 110/209/5
f 118/211/1 115/217/1 147/212/1
f 149/210/5 110/209/5 108/214/5
f 158/215/50 112/218/50 109/216/50
f 115/217/1 112/218/1 158/215/1
f 123/183/1 129/182/1 112/218/1
f 112/218/50 129/182/50 121/185/50
f 102/189/53 128/190/53 122/201/53
f 100/195/3 125/202/3 119/204/3
f 110/209/5 124/186/5 120/188/5
f 128/190/1 123/183/1 115/217/1
f 98/199/3 122/201/3 125/202/3
f 109/216/5 121/185/5 124/186/5
f 108/214/51 120/188/51 89/192/51
f 97/193/54 119/204/54 90/206/54
f 87/179/54 113/203/54 135/219/54
f 92/220/6 130/232/6 134/207/6
f 93/221/4 131/233/4 133/197/4
f 103/187/67 132/222/67 91/164/67
f 132/222/4 131/233/4 93/221/4
f 135/219/6 130/232/6 92/220/6
f 104/184/5 141/230/5 151/223/5
f 136/224/4 138/194/4 148/196/4
f 137/226/6 139/208/6 149/210/6
f 114/200/3 140/229/3 150/228/3
f 140/229/6 137/226/6 143/227/6
f 141/230/4 136/224/4 142/225/4
f 157/198/1 146/235/1 99/181/1
f 156/231/4 146/235/4 136/224/4
f 159/213/6 147/212/6 137/226/6
f 150/228/6 143/227/6 130/232/6
f 151/223/4 142/225/4 131/233/4
f 105/191/5 151/223/5 132/222/5
f 142/225/4 148/196/4 133/197/4
f 143/227/6 149/210/6 134/207/6
f 116/205/3 150/228/3 135/219/3
f 118/211/53 159/213/53 140/229/53
f 137/226/6 147/212/6 158/215/6
f 136/224/4 146/235/4 157/198/4
f 107/234/50 156/231/50 141/230/50
f 146/235/1 156/231/1 107/234/1
l 9 1
l 5 2
l 10 3
l 6 4
l 3 5
l 1 6
l 11 7
l 12 8
l 2 11
l 7 9
l 8 10
l 4 12
